<svg width="512" height="512" xmlns="http://www.w3.org/2000/svg" clip-rule="evenodd">

 <g>
  <title>background</title>
  <rect fill="none" id="canvas_background" height="402" width="582" y="-1" x="-1"/>
 </g>
 <g>
  <title>Layer 1</title>
  <path fill="#dcbc4d" id="svg_1" d="m255.022,511.998l0.229,0.001l-0.079,0l-0.15,-0.001zm1.806,0.001l-0.079,0l0.229,-0.001l-0.15,0.001zm-2.588,-0.005l0.247,0.001l-0.142,0l-0.105,-0.001zm3.415,0.001l-0.142,0l0.247,-0.001l-0.105,0.001zm-4.169,-0.007l0.165,0.001l-0.132,-0.001l-0.033,0zm4.995,0l-0.132,0.001l0.165,-0.001l-0.033,0zm0.826,-0.009l-0.058,0.001l0.223,-0.003l-0.165,0.002zm-6.779,-0.002l0.223,0.003l-0.058,-0.001l-0.165,-0.002zm7.604,-0.01l-0.135,0.002l0.275,-0.004l-0.14,0.002zm-8.404,-0.002l0.275,0.004l-0.135,-0.002l-0.14,-0.002zm9.228,-0.012l-0.182,0.003l0.254,-0.005l-0.072,0.002zm-9.984,-0.002l0.254,0.005l-0.182,-0.003l-0.072,-0.002zm-0.937,-0.019l0.225,0.005l-0.04,-0.001l-0.185,-0.004zm11.745,0.004l-0.04,0.001l0.225,-0.005l-0.185,0.004zm-12.567,-0.025l0.309,0.008l-0.125,-0.003l-0.184,-0.005zm13.39,0.005l-0.125,0.003l0.309,-0.008l-0.184,0.005zm0.823,-0.022l-0.201,0.006l0.316,-0.009l-0.115,0.003zm-14.967,-0.003l0.316,0.009l-0.201,-0.006l-0.115,-0.003zm-0.72,-0.022l0.225,0.007l-0.212,-0.007l-0.194,-0.006l0.181,0.006zm16.509,0l-0.212,0.007l0.225,-0.007l0.181,-0.006l-0.194,0.006zm0.821,-0.027l-0.112,0.004l0.345,-0.012l-0.233,0.008zm-18.371,-0.008l0.345,0.012l-0.112,-0.004l-0.233,-0.008zm-0.749,-0.028l0.362,0.013l-0.201,-0.007l-0.161,-0.006zm19.941,0.006l-0.201,0.007l0.362,-0.013l-0.161,0.006zm-20.676,-0.036l0.354,0.015l-0.277,-0.011l-0.077,-0.004zm21.495,0.004l-0.277,0.011l0.354,-0.015l-0.077,0.004zm-22.525,-0.049l0.38,0.017l-0.093,-0.003l-0.287,-0.014zm23.345,0.014l-0.093,0.003l0.38,-0.017l-0.287,0.014zm-24.084,-0.048l0.394,0.018l-0.186,-0.008l-0.208,-0.01zm24.902,0.01l-0.186,0.008l0.394,-0.018l-0.208,0.01zm-25.63,-0.047l0.397,0.02l-0.279,-0.013l-0.118,-0.007zm26.448,0.007l-0.279,0.013l0.397,-0.02l-0.118,0.007zm0.818,-0.043l-0.362,0.019l0.321,-0.017l0.378,-0.021l-0.337,0.019zm-27.925,0.002l0.321,0.017l-0.362,-0.019l-0.337,-0.019l0.378,0.021zm28.741,-0.048l-0.16,0.009l0.406,-0.023l-0.246,0.014zm-29.844,-0.014l0.406,0.023l-0.16,-0.009l-0.246,-0.014zm-0.722,-0.043l0.405,0.024l-0.253,-0.014l-0.152,-0.01zm31.382,0.01l-0.253,0.014l0.405,-0.024l-0.152,0.01zm-32.071,-0.053l0.365,0.023l-0.34,-0.021l-0.342,-0.022l0.317,0.02zm32.887,0.002l-0.34,0.021l0.365,-0.023l0.317,-0.02l-0.342,0.022zm0.814,-0.053l-0.122,0.008l0.387,-0.026l-0.265,0.018zm-34.755,-0.018l0.387,0.026l-0.122,-0.008l-0.265,-0.018zm-0.721,-0.05l0.38,0.027l-0.208,-0.014l-0.172,-0.013zm36.29,0.013l-0.208,0.014l0.38,-0.027l-0.172,0.013zm-37.009,-0.064l0.349,0.025l-0.271,-0.019l-0.078,-0.006zm37.822,0.006l-0.271,0.019l0.349,-0.025l-0.078,0.006zm-38.789,-0.079l0.306,0.023l-0.074,-0.005l-0.232,-0.018zm39.602,0.018l-0.074,0.005l0.306,-0.023l-0.232,0.018zm0.811,-0.063l-0.146,0.011l0.311,-0.025l-0.165,0.014zm-41.157,-0.014l0.311,0.025l-0.146,-0.011l-0.165,-0.014zm-0.725,-0.059l0.264,0.022l-0.186,-0.015l-0.078,-0.007zm42.694,0.007l-0.186,0.015l0.264,-0.022l-0.078,0.007zm-43.492,-0.074l0.079,0.007l-0.013,-0.001l-0.066,-0.006zm44.302,0.006l-0.013,0.001l0.079,-0.007l-0.066,0.006zm0.81,-0.071l-0.072,0.006l0.181,-0.016l-0.109,0.01zm-45.965,-0.01l0.181,0.016l-0.072,-0.006l-0.109,-0.01zm-0.75,-0.068l0.135,0.013l-0.084,-0.008l-0.051,-0.005zm47.523,0.005l-0.084,0.008l0.135,-0.013l-0.051,0.005zm-63.736,-2.025c-122.319,-19.226 -216,-125.203 -216,-252.887c0,-141.29 114.71,-256 256,-256c141.29,0 256,114.71 256,256c0,127.684 -93.681,233.661 -216,252.887l0,-178.887l59.65,0l11.35,-74l-71,0l0,-48.021c0,-20.245 9.918,-39.979 41.719,-39.979l32.281,0l0,-63c0,0 -29.296,-5 -57.305,-5c-58.476,0 -96.695,35.44 -96.695,99.6l0,56.4l-65,0l0,74l65,0l0,178.887z"/>
 </g>
</svg>