<svg height='100px' width='100px'  fill="#000000" xmlns="http://www.w3.org/2000/svg" viewBox="0 0 64 64" x="0px" y="0px"><title>insta, instagram, camera</title><g><path d="M43.18,32A11.18,11.18,0,1,1,32,20.82,11.2,11.2,0,0,1,43.18,32ZM55.5,22V42A13.515,13.515,0,0,1,42,55.5H22A13.515,13.515,0,0,1,8.5,42V22A13.515,13.515,0,0,1,22,8.5H42A13.515,13.515,0,0,1,55.5,22Zm-3,0A10.512,10.512,0,0,0,42,11.5H22A10.512,10.512,0,0,0,11.5,22V42A10.512,10.512,0,0,0,22,52.5H42A10.512,10.512,0,0,0,52.5,42Zm-4.76-4.39a2.549,2.549,0,0,0-.23-.43,3.678,3.678,0,0,0-.31-.38,3.585,3.585,0,0,0-.381-.31,2.5,2.5,0,0,0-.429-.23,2.821,2.821,0,0,0-.47-.14,2.7,2.7,0,0,0-.981,0,2.555,2.555,0,0,0-.469.14,2.511,2.511,0,0,0-.43.23,2.792,2.792,0,0,0-.38.31,3.552,3.552,0,0,0-.31.38,2.549,2.549,0,0,0-.23.43,2.624,2.624,0,0,0-.141.47,2.475,2.475,0,0,0,0,.98,2.624,2.624,0,0,0,.141.47,2.549,2.549,0,0,0,.23.43,3.552,3.552,0,0,0,.31.38,2.792,2.792,0,0,0,.38.31,2.511,2.511,0,0,0,.43.23,2.555,2.555,0,0,0,.469.14,2.431,2.431,0,0,0,.981,0,2.821,2.821,0,0,0,.47-.14,2.5,2.5,0,0,0,.429-.23,3.585,3.585,0,0,0,.381-.31,3.678,3.678,0,0,0,.31-.38,2.429,2.429,0,0,0,.37-.9,2.426,2.426,0,0,0,0-.98A2.542,2.542,0,0,0,47.74,17.61Z"></path></g></svg>